<?xml version="1.0" encoding="UTF-8"?>
<svg id="Layer_1" data-name="Layer 1" xmlns="http://www.w3.org/2000/svg" viewBox="0 0 1000 1000">
  <defs>
    <style>
      .cls-1 {
        fill: #d85b7f;
        stroke-width: 0px;
      }
    </style>
  </defs>
  <path class="cls-1" d="M361.51,333.1c-8.4,0-16.8-.05-25.19.02-5.17.04-7.42-1.84-5.37-7.18,2.7-7.06,5.41-14.11,7.9-21.25,1.93-5.53,6.36-5.47,10.95-5.47,31.63-.02,63.26-.2,94.9-.04,6.97.03,12.93-1.57,18.92-5.32,29.91-18.7,62.32-23.98,95.81-13.01,31.3,10.25,63.23,16.78,95.63,21.6,5.55.83,8.97,3.34,11.33,8.5,27.41,59.79,54.72,119.61,79.25,180.68,6.42,15.99,9.92,31.19,1.53,47.46-3.35,6.5-2.44,13.48.63,20.29,3.21,7.12,6.45,14.32,7.33,22.24,3.2,28.73-12.64,51.12-41.03,57.28-6.28,1.36-9.51,3.58-10.48,10.5-4.18,29.97-14.97,40.31-45.16,42.58-8.39.63-11.9,3.38-12.72,11.63-3.1,31.08-42.76,43.17-62.6,30.13-2.57-1.69-5.36-3.02-8.04-4.53-3.26-1.84-6.07-1.28-7.83,2.01-13.45,25.16-35.26,26.55-59.35,20.61-6.28-1.55-9.46-.07-12.63,5.64-6.59,11.85-19.79,17.36-32.1,14.56-13.89-3.16-22.78-13.4-24.08-27.64-.23-2.5-.1-5.21-1.08-7.41-1.96-4.45-4.37-6.78-9.31-2.13-11.93,11.23-24.19,12.72-36.6,5.28-13.89-8.32-18.63-19.72-14.74-35.57.66-2.69,2.1-5.37-.95-7.59-2.82-2.05-5.57-1.98-8.61-.34-13.28,7.18-25.55,4.71-36.5-4.75-10.53-9.09-12.35-20.75-8.3-33.64.96-3.07,1.54-6.53-.97-8.68-3.35-2.87-5.49,1.19-7.8,2.66-15.02,9.47-32.49,7.48-45.23-5.37-11.53-11.64-13.05-29.61-3.31-43.91,6.93-10.18,13.95-20.33,21.62-29.95,4.83-6.05,5.11-10.55.15-16.83-9.88-12.51-18.53-25.99-28.36-38.54-4.86-6.19-5.06-11.31-1.7-18.25,8.47-17.43,8.16-17.6,19.44-2.16,10.07,13.79,20.26,27.49,30.07,41.47,3.4,4.85,6.8,6.73,13.14,6.08,26.43-2.73,43.95,16.01,40.28,42.29-1.16,8.27,4.63,14.6,13.9,14.42,7.77-.15,14.96.94,21.54,5.44,9.23,6.3,14.14,14.83,14.62,25.99.43,9.92,7.87,16.9,17.64,16.7,16.73-.35,30.56,10.83,33.12,27.19.65,4.16,2.19,7.29,5.45,9.91,14.17,11.41,28.21,22.98,42.38,34.39,6.71,5.4,14.18,8.93,23.11,8.46,7.11-.38,12.26-3.38,14.76-10.33,2.48-6.87-.11-11.81-5.51-16.08-16.9-13.37-33.71-26.87-50.53-40.34-1.96-1.57-4.02-3.1-5.67-4.97-4.39-4.96-5.7-10.58-1.07-15.89,4.37-5,10.11-4.7,15.21-1.2,6.91,4.75,13.39,10.13,20.12,15.14,19.76,14.71,39.52,29.41,59.35,44.02,5.88,4.33,12.14,7.99,19.35,9.82,10.6,2.7,18.73.79,22.84-5.53,4.86-7.5,4.1-20.43-2-27.65-2.5-2.96-5.56-5.53-8.64-7.92-27.38-21.33-54.85-42.55-82.24-63.87-3.96-3.08-8-6.21-11.35-9.91-4.39-4.84-5.51-10.71-.78-15.92,4.59-5.07,10.37-5.11,15.94-1.33,3.23,2.19,6.15,4.85,9.26,7.24,31.72,24.41,63.45,48.81,95.19,73.21,6.52,5.01,13.51,9.01,21.92,9.81,12.23,1.17,19.26-4.84,19.95-17,.66-11.71-3.16-20.85-12.92-28.28-37.42-28.48-74.46-57.46-111.59-86.32-3.52-2.73-7.05-5.62-9.87-9.03-3.64-4.41-4.91-9.85-1.04-14.68,4.03-5.03,9.83-5.21,15.3-2.68,3.23,1.49,5.91,4.17,8.78,6.4,36.97,28.61,73.93,57.23,110.88,85.86,7.86,6.09,16.37,10.72,26.37,12.19,13.37,1.97,22.49-3.97,25.64-16.99,3.44-14.2.43-26.18-10.82-36.42-59.42-54.06-119.04-107.9-176.34-164.24-11.68-11.48-25.01-18.26-42.15-16.89-10.41.84-18.17,4.89-23.87,13.32-5.72,8.46-8.89,18.01-11.77,27.7-9.43,31.75-31.06,50.52-62.94,57.3-24.17,5.14-41.05-12.28-35.5-36.13,4.95-21.26,10.26-42.32,11.32-64.35.63-13.01,7.16-24.58,13.79-35.73,4.29-7.22,3.63-8.45-4.76-8.62-8.39-.17-16.8-.04-25.19-.04,0-.03,0-.06,0-.08Z"/>
  <path class="cls-1" d="M207.71,510.56c-1.4-.51-3.3-1.03-5.06-1.86-18.5-8.65-36.91-17.47-55.49-25.94-5.89-2.68-7.03-5.8-4.23-11.74,37.31-79.2,74.48-158.45,111.52-237.77,2.95-6.31,6.4-7.36,12.49-4.41,18.13,8.77,36.37,17.3,54.69,25.66,6.18,2.82,7.44,6.29,4.51,12.51-37.16,78.95-74.16,157.99-111.24,236.98-1.38,2.94-2.39,6.51-7.2,6.57Z"/>
  <path class="cls-1" d="M858.5,479.36c.27,3.92-2.39,5.2-4.94,6.3-19.77,8.57-39.59,17.02-59.36,25.59-6.98,3.03-8.82-1.9-10.88-6.69-17.83-41.38-35.67-82.76-53.51-124.13-14.73-34.18-29.49-68.36-44.17-102.56-4.28-9.98-3.94-10.88,5.82-15.14,17.7-7.72,35.55-15.1,53.14-23.06,6.45-2.92,9.98-2.17,12.95,4.74,32.89,76.64,66,153.19,99.04,229.76.77,1.79,1.37,3.66,1.93,5.18Z"/>
</svg>