<?xml version="1.0" encoding="UTF-8"?>
<svg id="Layer_1" data-name="Layer 1" xmlns="http://www.w3.org/2000/svg" viewBox="0 0 1000 1000">
  <defs>
    <style>
      .cls-1 {
        fill: #d85b7f;
        stroke-width: 0px;
      }
    </style>
  </defs>
  <path class="cls-1" d="M413.19,689.83l-74.71,102.85c-3.14,4.32-9.83,3.3-11.53-1.74l-22.8-67.18c-.89-2.63-3.35-4.41-6.13-4.45l-70.93-.9c-5.32-.08-8.36-6.13-5.23-10.43l76.26-104.97c28.78,39.19,68.69,69.69,115.08,86.83Z"/>
  <path class="cls-1" d="M500.01,204.6c-138.28,0-250.35,112.07-250.35,250.35,0,55.39,17.97,106.58,48.45,148.06,28.78,39.19,68.68,69.69,115.08,86.82,27.06,10,56.3,15.46,86.82,15.46s59.74-5.47,86.8-15.46c46.39-17.14,86.3-47.64,115.08-86.82,30.48-41.48,48.45-92.67,48.45-148.06,0-138.28-112.07-250.35-250.32-250.35ZM500.01,640.03c-102.22,0-185.08-82.86-185.08-185.08s82.86-185.08,185.08-185.08,185.08,82.86,185.08,185.08-82.88,185.08-185.08,185.08Z"/>
  <path class="cls-1" d="M772.92,718.41l-70.93.9c-2.78.04-5.24,1.82-6.13,4.45l-22.79,67.18c-1.72,5.04-8.41,6.06-11.55,1.74l-74.72-102.85c46.39-17.14,86.3-47.64,115.08-86.83l76.26,104.97c3.12,4.31.09,10.35-5.23,10.43Z"/>
  <path class="cls-1" d="M615.01,408.52l-133.5,133.47c-10.77,10.77-28.24,10.77-39.01,0l-57.51-57.51c-11.14-11.14-11.13-29.19,0-40.33h0c11.13-11.13,29.18-11.13,40.31,0l31.61,31.6c2.82,2.82,7.39,2.82,10.21,0l107.57-107.55c11.14-11.13,29.19-11.13,40.32,0h0c11.13,11.14,11.13,29.19,0,40.32Z"/>
</svg>