<?xml version="1.0" encoding="UTF-8"?>
<svg id="Layer_1" data-name="Layer 1" xmlns="http://www.w3.org/2000/svg" viewBox="0 0 1000 1000">
  <defs>
    <style>
      .cls-1 {
        fill: #d85b7f;
        stroke-width: 0px;
      }
    </style>
  </defs>
  <path class="cls-1" d="M853.38,495.49v.06l-1.06-2.78-25.98-68.93-10.76-28.54-19.43-51.56c-5.71-15.19-20.49-25.36-36.8-25.36h-116.77l2.03-16.56c1.34-11.1-2.21-22.18-9.61-30.5-7.45-8.39-18.21-13.16-29.41-13.16H225.39c-19.84,0-36.65,14.85-39.02,34.43l-3.15,25.79-3.4,28.54-5.05,41.98h103.33c7.27,0,13.19,5.89,13.19,13.1s-5.93,13.1-13.19,13.1h-93.66c-7.3,0-13.47,5.46-14.35,12.73-1.03,8.58,5.71,16.16,14.35,16.16h63.91c8.17,0,14.85,5.89,14.85,13.1s-6.67,13.1-14.85,13.1h-70.52c-7.3,0-13.47,5.46-14.35,12.73v.03c-1.03,8.61,5.71,16.16,14.35,16.16h63.72c7.67,0,13.88,6.58,13.1,14.38-.66,6.8-6.8,11.79-13.66,11.79h-82.59l-5.05,41.98-3.49,29.26-3.43,28.54-2,16.56c-1.34,11.1,2.21,22.18,9.67,30.57,7.45,8.3,18.18,13.1,29.35,13.1h38.61c4.68,26.6,23.98,48.84,50.81,54.86,4.83,1.12,9.7,1.68,14.5,1.68,13.04,0,25.86-3.96,37.24-11.57,15.25-10.26,25.98-26.01,30.1-44.29,0-.22.06-.5.16-.69h265.48c4.68,26.6,23.98,48.84,50.84,54.86,4.8,1.12,9.54,1.59,14.28,1.59,31.22,0,59.95-22.64,67.52-55.77l.16-.69h39.8c19.24,0,35.49-13.66,38.77-32.5l4.8-27.79,9.95-58.14,7.89-45.66.97-5.4c1.12-6.8.5-13.85-1.93-20.3ZM326.91,679.51c-.44,1.96-1,3.9-1.75,5.71-3.15,8.8-8.92,16.28-16.53,21.33l-.06.06c-8.92,5.96-19.31,8.05-29.22,5.74-13.66-3.12-23.83-13.69-27.79-27.07-2.18-7.08-2.53-14.91-.72-22.86.44-1.96,1-3.9,1.75-5.71,3.15-8.86,8.92-16.28,16.53-21.4,6.55-4.37,13.88-6.64,21.24-6.64,2.65,0,5.4.34,8.02.9,9.98,2.28,18.4,8.58,23.86,17.81,1.75,2.96,3.06,6.02,4.02,9.26,1.19,4.02,1.81,8.17,1.81,12.48,0,3.4-.34,6.92-1.15,10.39ZM795.65,423.79l26.01,68.93h-91.38c-4.18,0-6.83-2.28-8.02-3.68-1.19-1.37-3.06-4.27-2.43-8.36l7.02-47.91c.78-5.12,5.24-8.98,10.48-8.98h58.32ZM725.19,679.51c-.44,1.96-1,3.9-1.75,5.71-7.11,19.52-26.57,31.44-45.72,27.07l-.06.06c-13.66-3.12-23.86-13.69-27.82-27.07-2.15-7.08-2.53-14.91-.72-22.86.44-1.96,1-3.9,1.75-5.71,3.15-8.86,8.92-16.28,16.53-21.4,6.55-4.37,13.88-6.64,21.27-6.64,2.65,0,5.36.34,8.02.9,9.95,2.28,18.4,8.58,23.83,17.81,1.75,2.96,3.06,6.02,4.05,9.26,2.21,7.2,2.37,15.13.62,22.86ZM818.23,562.08l-5.83,34.43h-203.13l29.91-249.58h120.11c4.37,0,8.36,2.78,9.95,6.86l15.63,41.51h-47.63c-19.37,0-36.02,14.32-38.89,33.37l-7.02,47.88c-1.68,11.32,1.65,22.67,9.11,31.19,7.49,8.61,18.34,13.6,29.79,13.6h95l-6.99,40.73Z"/>
</svg>