<svg width="32" height="23" viewBox="0 0 32 23" fill="none" xmlns="http://www.w3.org/2000/svg">
<g clip-path="url(#clip0_274_16)">
<rect width="32" height="23" fill="white"/>
<rect width="32" height="23" rx="5" fill="#D85A7F"/>
<path d="M8.69408 7.59583H4.04121C3.78639 7.59583 3.57812 7.80285 3.57812 8.05614C3.57812 8.30944 3.78639 8.51646 4.04121 8.51646H8.69163C8.94645 8.51646 9.15471 8.30944 9.15471 8.05614C9.15471 7.80285 8.94645 7.59583 8.69163 7.59583H8.69408Z" fill="#EEEDF0"/>
<path d="M7.70476 9.5321H5.11738C4.86256 9.5321 4.6543 9.73913 4.6543 9.99242C4.6543 10.2457 4.86256 10.4527 5.11738 10.4527H7.70476C7.95958 10.4527 8.16784 10.2457 8.16784 9.99242C8.16784 9.73913 7.95958 9.5321 7.70476 9.5321Z" fill="#EEEDF0"/>
<path d="M7.40541 11.4683H3.46308C3.20826 11.4683 3 11.6753 3 11.9286C3 12.1819 3.20826 12.389 3.46308 12.389H7.40541C7.66022 12.389 7.86849 12.1819 7.86849 11.9286C7.86849 11.6753 7.66022 11.4683 7.40541 11.4683Z" fill="#EEEDF0"/>
<path d="M28.9127 11.3441L28.8759 11.2467L27.962 8.82335L27.5847 7.81991L26.9011 6.00788C26.7002 5.4745 26.1807 5.11648 25.6074 5.11648H21.5034L21.5744 4.53438C21.621 4.1447 21.496 3.75501 21.2363 3.46275C20.9741 3.16805 20.5968 3 20.2023 3H6.83908C6.14079 3 5.55029 3.5212 5.46699 4.21046L5.35673 5.11648L5.23667 6.11991H20.364L19.3129 14.8927H5.19992L5.32243 13.8649H4.30561L4.1831 14.8927L4.06304 15.8961L3.99199 16.4782C3.94543 16.8679 4.07039 17.2576 4.33256 17.5523C4.59473 17.8446 4.97205 18.0126 5.36408 18.0126H6.72148C6.88564 18.9479 7.56433 19.7297 8.50765 19.9415C8.67671 19.9805 8.84822 20 9.01728 20C9.47547 20 9.9263 19.8612 10.3257 19.5933C10.8623 19.2328 11.2396 18.6799 11.3841 18.037C11.3841 18.0297 11.3866 18.0199 11.389 18.0126H20.7217C20.8859 18.9479 21.5646 19.7297 22.5079 19.9415C22.677 19.9805 22.8436 19.9976 23.0102 19.9976C24.1079 19.9976 25.1174 19.2011 25.3844 18.037L25.3893 18.0126H26.7884C27.4646 18.0126 28.0355 17.5328 28.1507 16.8703L28.3197 15.8937L28.6701 13.8503L28.947 12.2453L28.9813 12.0553C29.0205 11.8166 28.9984 11.5682 28.9127 11.3417V11.3441ZM27.7978 11.2443H24.5857C24.4387 11.2443 24.3455 11.1639 24.3039 11.1152C24.2622 11.0665 24.1961 10.9642 24.2181 10.8205L24.4656 9.13754C24.4926 8.95731 24.6494 8.82092 24.8331 8.82092H26.8839L27.7978 11.2443ZM6.37355 5.11648L6.46666 4.3298C6.48871 4.14226 6.64797 4.00344 6.83663 4.00344H20.1999C20.3469 4.00344 20.4375 4.08138 20.4792 4.12765C20.5208 4.17393 20.5894 4.27378 20.5698 4.41748L20.4865 5.11648H6.37355ZM5.08721 16.885C5.04801 16.8387 4.9794 16.7388 4.99656 16.5951L5.07986 15.8961H7.29237C7.03265 16.2054 6.84398 16.5756 6.75088 16.9848C6.75088 16.9921 6.74843 17.0019 6.74598 17.0092H5.36653C5.22197 17.0092 5.12886 16.9312 5.08721 16.885ZM9.76214 18.7628C9.44852 18.9722 9.08344 19.0453 8.73551 18.9649C8.25528 18.8553 7.89756 18.4827 7.7579 18.0126C7.68194 17.7642 7.66969 17.489 7.7334 17.2089C7.7481 17.1407 7.7677 17.0725 7.79465 17.0092C7.90491 16.6974 8.10827 16.4368 8.37534 16.2566C8.60566 16.1032 8.86292 16.0228 9.12264 16.0228C9.21575 16.0228 9.31131 16.035 9.40441 16.0544C9.75479 16.1348 10.0513 16.3564 10.2424 16.6804C10.3036 16.7851 10.3502 16.8923 10.3845 17.0067C10.4261 17.148 10.4482 17.2941 10.4482 17.4451C10.4482 17.5645 10.4359 17.6887 10.4065 17.8105C10.3918 17.8787 10.3722 17.9468 10.3453 18.0102C10.235 18.3195 10.0317 18.5825 9.76459 18.7603L9.76214 18.7628ZM19.0581 17.0092H11.4136C11.3621 16.7169 11.2616 16.4368 11.1122 16.1762C11.0558 16.0764 10.9897 15.9814 10.9211 15.8937H19.1953L19.0605 17.0092H19.0581ZM20.2097 15.8937H21.2951C21.0329 16.203 20.8467 16.5732 20.7536 16.9824C20.7536 16.9897 20.7511 16.9994 20.7487 17.0067H20.0774L20.2097 15.8913V15.8937ZM22.7358 18.9649C22.2556 18.8553 21.8978 18.4827 21.7582 18.0126C21.6822 17.7642 21.67 17.489 21.7337 17.2089C21.7484 17.1407 21.768 17.0725 21.7949 17.0092C21.9052 16.6974 22.1085 16.4368 22.3756 16.2566C22.6059 16.1032 22.8632 16.0228 23.1229 16.0228C23.216 16.0228 23.3116 16.035 23.4047 16.0544C23.7551 16.1348 24.0515 16.3564 24.2426 16.6804C24.3039 16.7851 24.3504 16.8923 24.3848 17.0067C24.4632 17.26 24.4681 17.5377 24.4068 17.8105C24.3921 17.8787 24.3725 17.9468 24.3455 18.0102C24.0956 18.697 23.412 19.1159 22.7382 18.9625L22.7358 18.9649ZM27.1583 16.7023C27.1265 16.8801 26.9721 17.0092 26.7908 17.0092H25.4163C25.3648 16.7169 25.2644 16.4368 25.1125 16.1762C25.0536 16.0764 24.9899 15.9814 24.9189 15.8937H27.2956L27.1583 16.6999V16.7023ZM27.6778 13.6822L27.472 14.8927H20.3322L21.3833 6.11991H25.6049C25.7593 6.11991 25.899 6.21734 25.9553 6.36103L26.5041 7.81991H24.8307C24.1495 7.81991 23.5639 8.32407 23.4635 8.99384L23.216 10.6768C23.1572 11.0738 23.2748 11.4732 23.537 11.7728C23.7992 12.0748 24.1814 12.2501 24.5832 12.2501H27.9228L27.6778 13.6847V13.6822Z" fill="#EEEDF0"/>
</g>
<defs>
<clipPath id="clip0_274_16">
<rect width="32" height="23" fill="white"/>
</clipPath>
</defs>
</svg>
