<svg width="169" height="73" viewBox="0 0 169 73" fill="none" xmlns="http://www.w3.org/2000/svg">
<path fill-rule="evenodd" clip-rule="evenodd" d="M72.4113 12.624V30.5439H65.8207V20.2799L43.028 52.8345L20.2352 20.2799V60.0838H13.6426V12.624H20.2352L43.028 45.1787L65.8207 12.624H72.4113Z" fill="#7F7F7F"/>
<path d="M72.413 44.27H65.8203V60.0839H72.413V44.27Z" fill="white"/>
<path fill-rule="evenodd" clip-rule="evenodd" d="M155.36 12.5796V60.0394H148.787V20.2334L125.974 52.7901L103.182 20.2334V30.4995H96.6094V12.5796H103.182L125.974 45.1342L148.767 12.5796H155.36Z" fill="#7F7F7F"/>
<path d="M72.413 34.6445H65.8203V40.1923H72.413V34.6445Z" fill="white"/>
<path fill-rule="evenodd" clip-rule="evenodd" d="M103.189 34.5469V60.0454H96.6148L84.204 42.3369V60.084H77.6113V34.6445L84.204 34.7014L96.6148 52.4099V34.5469H103.189Z" fill="white"/>
<path d="M0 0V72.2834H169V0H0ZM165.522 68.1058H3.4803V4.17555H165.522V68.1058Z" fill="white"/>
</svg>
