<svg width="229" height="98" viewBox="0 0 229 98" fill="none" xmlns="http://www.w3.org/2000/svg">
<path fill-rule="evenodd" clip-rule="evenodd" d="M98.1197 17.1156V41.411H89.1892V27.4952L58.3044 71.632L27.4196 27.4952V81.4604H18.4863V17.1156H27.4196L58.3044 61.2524L89.1892 17.1156H98.1197Z" fill="#7F7F7F"/>
<path d="M98.1247 60.0204H89.1914V81.4605H98.1247V60.0204Z" fill="#171717"/>
<path fill-rule="evenodd" clip-rule="evenodd" d="M210.517 17.055V81.3998H201.611V27.4319L170.699 71.5714L139.814 27.4319V41.3503H130.908V17.055H139.814L170.699 61.1918L201.584 17.055H210.517Z" fill="#7F7F7F"/>
<path d="M98.1247 46.9701H89.1914V54.4916H98.1247V46.9701Z" fill="#171717"/>
<path fill-rule="evenodd" clip-rule="evenodd" d="M139.827 46.8378V81.4081H130.918L114.101 57.3993V81.4604H105.168V46.9701L114.101 47.0473L130.918 71.056V46.8378H139.827Z" fill="#171717"/>
<path d="M0 0V98H229V0H0ZM224.287 92.3361H4.71591V5.66111H224.287V92.3361Z" fill="#171717"/>
</svg>
